<svg width="761" height="491" viewBox="0 0 761 491" fill="none" xmlns="http://www.w3.org/2000/svg">
<g clip-path="url(#clip0_9437_381)">
<path d="M640.871 277.715C640.871 133.687 524.082 16.9272 380.019 16.9272C235.956 16.9272 119.167 133.687 119.167 277.715C119.167 421.743 137.333 387.089 168.149 429.888C181.761 448.808 252.199 419.618 270.314 434.239C315.148 470.511 374.301 423.008 426.067 388.607C483.449 350.463 487.851 316.163 593.154 367.866C612.332 377.275 618.809 384.965 626.096 364.476C635.659 337.31 640.871 308.12 640.871 277.665V277.715Z" fill="#DFD6C1"/>
<path d="M159.294 345.454L138.699 223.281H156.005L166.125 289.958C170.325 316.315 172.602 330.986 172.602 331.492H173.108C173.26 330.986 175.031 316.315 179.029 290.312L189.149 223.281H205.544L185.101 345.454H159.244H159.294Z" fill="#583E33"/>
<path d="M224.925 317.529L220.927 345.454H205.038L225.481 223.281H250.074L270.314 345.454H253.717L249.517 317.529H224.925ZM241.876 266.181C240.308 254.849 237.676 237.396 237.676 237.042H237.17C237.018 237.396 234.387 254.343 232.616 265.675L227.202 302.504H247.291L241.876 266.181Z" fill="#583E33"/>
<path d="M338.222 312.976C335.793 332.352 330.379 347.377 307.658 347.377C284.938 347.377 274.818 331.998 274.818 284.039C274.818 236.08 286.355 221.359 308.164 221.359C329.974 221.359 337.159 235.676 338.019 254.495L323.193 258.491C322.485 244.529 317.779 236.839 307.81 236.839C297.842 236.839 291.415 248.728 291.415 283.634C291.415 318.541 295.615 331.795 307.81 331.795C320.005 331.795 321.422 324.308 323.345 308.929L338.171 312.926H338.222V312.976Z" fill="#583E33"/>
<path d="M364.94 317.529L360.942 345.454H345.053L365.496 223.281H390.089L410.33 345.454H393.732L389.532 317.529H364.94ZM381.891 266.181C380.323 254.849 377.691 237.396 377.691 237.042H377.185C377.034 237.396 374.402 254.343 372.631 265.675L367.217 302.504H387.306L381.891 266.181Z" fill="#583E33"/>
<path d="M435.276 258.339H434.77C434.77 258.491 434.922 273.365 434.922 287.479V345.404H419.893V223.23H437.199L468.117 312.925H468.623C468.623 312.774 468.471 298.963 468.471 283.078V223.23H483.499V345.404H465.89L435.327 258.289L435.276 258.339Z" fill="#583E33"/>
<path d="M519.629 312.268C515.075 323.448 512.14 329.367 512.14 329.569L512.292 330.075C512.444 330.075 516.998 329.924 523.475 329.924H549.687V345.454H495.391V329.924L526.309 255.203C530.306 245.591 533.444 239.318 533.444 239.166L533.089 238.66C532.938 238.66 528.738 238.812 522.767 238.812H496.909V223.281H549.13V239.318L519.629 312.268Z" fill="#583E33"/>
<path d="M576 317.529L572.002 345.454H556.113L576.556 223.281H601.149L621.39 345.454H604.792L600.592 317.529H576ZM592.951 266.181C591.383 254.849 588.751 237.396 588.751 237.042H588.245C588.094 237.396 585.462 254.343 583.691 265.675L578.277 302.504H598.366L592.951 266.181Z" fill="#583E33"/>
<path d="M754.017 392.098C759.027 404.846 734.435 426.347 699.114 440.158C663.794 453.968 631.156 454.828 626.197 442.08C621.238 429.331 645.78 407.831 681.1 394.02C716.42 380.209 749.058 379.349 754.017 392.098Z" fill="#C7BB9D"/>
<mask id="mask0_9437_381" style="mask-type:luminance" maskUnits="userSpaceOnUse" x="625" y="383" width="130" height="69">
<path d="M754.017 392.098C759.027 404.846 734.435 426.347 699.114 440.158C663.794 453.968 631.156 454.828 626.197 442.08C621.238 429.331 645.78 407.831 681.1 394.02C716.42 380.209 749.058 379.349 754.017 392.098Z" fill="white"/>
</mask>
<g mask="url(#mask0_9437_381)">
<path d="M754.017 392.098C759.027 404.846 734.435 426.347 699.114 440.158C663.794 453.968 631.156 454.828 626.197 442.08C621.238 429.331 645.78 407.831 681.1 394.02C716.42 380.209 749.058 379.349 754.017 392.098Z" fill="#C7BB9D"/>
</g>
<path d="M753.359 391.592C757.914 403.177 732.967 423.766 697.647 437.577C662.327 451.388 630.043 453.159 625.539 441.574C620.985 429.989 645.932 409.399 681.252 395.588C716.572 381.777 748.856 380.007 753.359 391.592Z" fill="#E4DECA"/>
<mask id="mask1_9437_381" style="mask-type:luminance" maskUnits="userSpaceOnUse" x="625" y="383" width="129" height="67">
<path d="M753.359 391.592C757.914 403.177 732.967 423.766 697.647 437.577C662.327 451.388 630.043 453.159 625.539 441.574C620.985 429.989 645.932 409.399 681.252 395.588C716.572 381.777 748.856 380.007 753.359 391.592Z" fill="white"/>
</mask>
<g mask="url(#mask1_9437_381)">
<path d="M753.359 391.592C757.914 403.177 732.967 423.766 697.647 437.577C662.327 451.388 630.043 453.159 625.539 441.574C620.985 429.989 645.932 409.399 681.252 395.588C716.572 381.777 748.856 380.007 753.359 391.592Z" fill="#E4DECA"/>
</g>
<path d="M722.644 401.861C724.921 407.73 711.664 418.353 692.941 425.689C674.269 432.974 657.267 434.188 654.99 428.319C652.713 422.451 665.97 411.827 684.693 404.492C703.365 397.207 720.367 395.993 722.644 401.861Z" fill="#C7BB9D"/>
<mask id="mask2_9437_381" style="mask-type:luminance" maskUnits="userSpaceOnUse" x="654" y="398" width="69" height="35">
<path d="M722.644 401.861C724.921 407.73 711.664 418.353 692.941 425.689C674.269 432.974 657.267 434.188 654.99 428.319C652.713 422.451 665.97 411.827 684.693 404.492C703.365 397.207 720.367 395.993 722.644 401.861Z" fill="white"/>
</mask>
<g mask="url(#mask2_9437_381)">
<path d="M722.644 401.861C724.921 407.73 711.664 418.353 692.941 425.689C674.269 432.974 657.267 434.188 654.99 428.319C652.713 422.451 665.97 411.827 684.693 404.492C703.365 397.207 720.367 395.993 722.644 401.861Z" fill="#C7BB9D"/>
</g>
<path d="M662.529 428.623C660.961 428.168 659.746 427.409 659.19 426.094C659.038 425.74 658.987 425.386 658.987 425.031C658.987 422.047 661.872 419.011 666.476 415.672C671.132 412.334 677.609 408.893 685.098 405.959C694.054 402.469 702.505 400.445 708.577 400.192C710.905 400.091 712.878 400.192 714.497 400.647C716.066 401.103 717.281 401.862 717.837 403.177C717.989 403.531 718.04 403.885 718.04 404.239C718.04 407.224 715.155 410.259 710.55 413.598C705.895 416.937 699.418 420.377 691.929 423.311C682.973 426.802 674.522 428.826 668.45 429.079C666.122 429.18 664.149 429.079 662.529 428.623ZM685.756 407.528C678.418 410.411 671.992 413.801 667.488 417.038C662.985 420.225 660.505 423.362 660.708 424.93C660.708 425.133 660.708 425.284 660.809 425.436C661.011 426.043 661.72 426.6 663.035 426.954C664.351 427.308 666.173 427.46 668.399 427.359C674.168 427.106 682.517 425.133 691.322 421.693C698.659 418.809 705.086 415.42 709.589 412.182C714.093 408.995 716.572 405.858 716.37 404.29C716.37 404.087 716.37 403.936 716.268 403.784C716.066 403.177 715.358 402.62 714.042 402.266C712.726 401.912 710.905 401.76 708.678 401.862C702.91 402.114 694.611 404.087 685.756 407.528Z" fill="#DBD5C2"/>
<mask id="mask3_9437_381" style="mask-type:luminance" maskUnits="userSpaceOnUse" x="658" y="400" width="61" height="30">
<path d="M662.529 428.623C660.961 428.168 659.746 427.409 659.19 426.094C659.038 425.74 658.987 425.386 658.987 425.031C658.987 422.047 661.872 419.011 666.476 415.672C671.132 412.334 677.609 408.893 685.098 405.959C694.054 402.469 702.505 400.445 708.577 400.192C710.905 400.091 712.878 400.192 714.497 400.647C716.066 401.103 717.281 401.862 717.837 403.177C717.989 403.531 718.04 403.885 718.04 404.239C718.04 407.224 715.155 410.259 710.55 413.598C705.895 416.937 699.418 420.377 691.929 423.311C682.973 426.802 674.522 428.826 668.45 429.079C666.122 429.18 664.149 429.079 662.529 428.623ZM685.756 407.528C678.418 410.411 671.992 413.801 667.488 417.038C662.985 420.225 660.505 423.362 660.708 424.93C660.708 425.133 660.708 425.284 660.809 425.436C661.011 426.043 661.72 426.6 663.035 426.954C664.351 427.308 666.173 427.46 668.399 427.359C674.168 427.106 682.517 425.133 691.322 421.693C698.659 418.809 705.086 415.42 709.589 412.182C714.093 408.995 716.572 405.858 716.37 404.29C716.37 404.087 716.37 403.936 716.268 403.784C716.066 403.177 715.358 402.62 714.042 402.266C712.726 401.912 710.905 401.76 708.678 401.862C702.91 402.114 694.611 404.087 685.756 407.528Z" fill="white"/>
</mask>
<g mask="url(#mask3_9437_381)">
<path d="M662.529 428.623C660.961 428.168 659.746 427.409 659.19 426.094C659.038 425.74 658.987 425.386 658.987 425.031C658.987 422.047 661.872 419.011 666.476 415.672C671.132 412.334 677.609 408.893 685.098 405.959C694.054 402.469 702.505 400.445 708.577 400.192C710.905 400.091 712.878 400.192 714.497 400.647C716.066 401.103 717.281 401.862 717.837 403.177C717.989 403.531 718.04 403.885 718.04 404.239C718.04 407.224 715.155 410.259 710.55 413.598C705.895 416.937 699.418 420.377 691.929 423.311C682.973 426.802 674.522 428.826 668.45 429.079C666.122 429.18 664.149 429.079 662.529 428.623ZM685.756 407.528C678.418 410.411 671.992 413.801 667.488 417.038C662.985 420.225 660.505 423.362 660.708 424.93C660.708 425.133 660.708 425.284 660.809 425.436C661.011 426.043 661.72 426.6 663.035 426.954C664.351 427.308 666.173 427.46 668.399 427.359C674.168 427.106 682.517 425.133 691.322 421.693C698.659 418.809 705.086 415.42 709.589 412.182C714.093 408.995 716.572 405.858 716.37 404.29C716.37 404.087 716.37 403.936 716.268 403.784C716.066 403.177 715.358 402.62 714.042 402.266C712.726 401.912 710.905 401.76 708.678 401.862C702.91 402.114 694.611 404.087 685.756 407.528Z" fill="#DBD5C2"/>
</g>
<path d="M649.423 429.534C649.423 429.534 639.151 440.714 659.341 436.566C640.619 444.458 626.501 439.095 649.423 429.534Z" fill="#F2EEE3"/>
<mask id="mask4_9437_381" style="mask-type:luminance" maskUnits="userSpaceOnUse" x="637" y="429" width="23" height="12">
<path d="M649.423 429.534C649.423 429.534 639.151 440.714 659.341 436.566C640.619 444.458 626.501 439.095 649.423 429.534Z" fill="white"/>
</mask>
<g mask="url(#mask4_9437_381)">
<path d="M649.423 429.534C649.423 429.534 639.151 440.714 659.341 436.566C640.619 444.458 626.501 439.095 649.423 429.534Z" fill="#F2EEE3"/>
</g>
<path d="M727.907 397.865C727.907 397.865 753.764 402.317 693.396 430.191C707.919 425.284 743.189 408.59 742.025 398.168C741.266 391.693 727.957 397.865 727.957 397.865H727.907Z" fill="#F0EBDA"/>
<mask id="mask5_9437_381" style="mask-type:luminance" maskUnits="userSpaceOnUse" x="693" y="395" width="50" height="36">
<path d="M727.907 397.865C727.907 397.865 753.764 402.317 693.396 430.191C707.919 425.284 743.189 408.59 742.025 398.168C741.266 391.693 727.957 397.865 727.957 397.865H727.907Z" fill="white"/>
</mask>
<g mask="url(#mask5_9437_381)">
<path d="M727.907 397.865C727.907 397.865 753.764 402.317 693.396 430.191C707.919 425.284 743.189 408.59 742.025 398.168C741.266 391.693 727.957 397.865 727.957 397.865" fill="#F0EBDA"/>
</g>
<path d="M691.575 331.593C691.575 331.593 702.505 308.473 717.179 320.969C731.803 333.465 715.762 354.206 701.088 359.164C700.784 356.28 699.975 354.51 699.975 354.51C699.975 354.51 720.215 346.618 713.08 335.185C705.946 323.751 695.319 338.574 695.471 343.684C693.902 339.738 691.625 331.593 691.625 331.593H691.575Z" fill="#E4DECA"/>
<mask id="mask6_9437_381" style="mask-type:luminance" maskUnits="userSpaceOnUse" x="691" y="317" width="32" height="43">
<path d="M691.575 331.593C691.575 331.593 702.505 308.473 717.179 320.969C731.803 333.465 715.762 354.206 701.088 359.164C700.784 356.28 699.975 354.51 699.975 354.51C699.975 354.51 720.215 346.618 713.08 335.185C705.946 323.751 695.319 338.574 695.471 343.684C693.902 339.738 691.625 331.593 691.625 331.593H691.575Z" fill="white"/>
</mask>
<g mask="url(#mask6_9437_381)">
<path d="M691.575 331.593C691.575 331.593 702.505 308.473 717.179 320.969C731.803 333.465 715.762 354.206 701.088 359.164C700.784 356.28 699.975 354.51 699.975 354.51C699.975 354.51 720.215 346.618 713.08 335.185C705.946 323.751 695.319 338.574 695.471 343.684C693.902 339.738 691.625 331.593 691.625 331.593" fill="#E4DECA"/>
</g>
<path d="M719.051 341.609C718.748 336.652 717.28 329.519 714.042 327.343C710.803 325.168 709.134 320.665 714.346 321.88C719.557 323.094 723.454 332.706 719.051 341.609Z" fill="#F0EBDA"/>
<mask id="mask7_9437_381" style="mask-type:luminance" maskUnits="userSpaceOnUse" x="711" y="321" width="10" height="21">
<path d="M719.051 341.609C718.748 336.652 717.28 329.519 714.042 327.343C710.803 325.168 709.134 320.665 714.346 321.88C719.557 323.094 723.454 332.706 719.051 341.609Z" fill="white"/>
</mask>
<g mask="url(#mask7_9437_381)">
<path d="M719.051 341.609C718.748 336.652 717.28 329.519 714.042 327.343C710.803 325.168 709.134 320.665 714.346 321.88C719.557 323.094 723.454 332.706 719.051 341.609Z" fill="#F0EBDA"/>
</g>
<path d="M683.428 317.479L639.91 353.093V352.992L636.47 355.876L633.13 358.608V358.709L589.46 396.196C589.46 396.196 626.805 434.998 664.351 426.144C667.387 427.156 676.192 422.502 685.199 414.964C694.206 407.426 700.329 399.585 699.873 396.398C715.155 360.985 683.479 317.479 683.479 317.479H683.428Z" fill="#E4DECA"/>
<mask id="mask8_9437_381" style="mask-type:luminance" maskUnits="userSpaceOnUse" x="589" y="317" width="116" height="111">
<path d="M683.428 317.479L639.91 353.093V352.992L636.47 355.876L633.13 358.608V358.709L589.46 396.196C589.46 396.196 626.805 434.998 664.351 426.144C667.387 427.156 676.192 422.502 685.199 414.964C694.206 407.426 700.329 399.585 699.873 396.398C715.155 360.985 683.479 317.479 683.479 317.479H683.428Z" fill="white"/>
</mask>
<g mask="url(#mask8_9437_381)">
<path d="M683.428 317.479L639.91 353.093V352.992L636.47 355.876L633.13 358.608V358.709L589.46 396.196C589.46 396.196 626.805 434.998 664.351 426.144C667.387 427.156 676.192 422.502 685.199 414.964C694.206 407.426 700.329 399.585 699.873 396.398C715.155 360.985 683.479 317.479 683.479 317.479" fill="#E4DECA"/>
<path d="M683.428 317.479L639.91 353.093V352.992L636.47 355.876L633.13 358.608V358.709L589.46 396.196C589.46 396.196 626.805 434.998 664.351 426.144C667.387 427.156 676.192 422.502 685.199 414.964C694.206 407.426 700.329 399.585 699.873 396.398C715.155 360.985 683.479 317.479 683.479 317.479" fill="#E4DECA"/>
</g>
<path d="M669.208 359.771C669.208 359.771 684.895 349.4 684.591 337.815C696.837 349.502 708.627 376.921 685.502 400.85C685.401 382.435 681.201 372.014 669.208 359.771Z" fill="#F0EBDA"/>
<mask id="mask9_9437_381" style="mask-type:luminance" maskUnits="userSpaceOnUse" x="669" y="337" width="30" height="64">
<path d="M669.208 359.771C669.208 359.771 684.895 349.4 684.591 337.815C696.837 349.502 708.627 376.921 685.502 400.85C685.401 382.435 681.201 372.014 669.208 359.771Z" fill="white"/>
</mask>
<g mask="url(#mask9_9437_381)">
<path d="M669.208 359.771C669.208 359.771 684.895 349.4 684.591 337.815C696.837 349.502 708.627 376.921 685.502 400.85C685.401 382.435 681.201 372.014 669.208 359.771Z" fill="#F0EBDA"/>
</g>
<path d="M603.73 401.406C603.73 401.406 610.005 401.001 614.812 398.017C619.417 403.936 637.532 424.272 656.356 423.868C634.142 422.299 620.58 418.657 603.73 401.406Z" fill="#F2EEE3"/>
<mask id="mask10_9437_381" style="mask-type:luminance" maskUnits="userSpaceOnUse" x="603" y="398" width="54" height="26">
<path d="M603.73 401.406C603.73 401.406 610.005 401.001 614.812 398.017C619.417 403.936 637.532 424.272 656.356 423.868C634.142 422.299 620.58 418.657 603.73 401.406Z" fill="white"/>
</mask>
<g mask="url(#mask10_9437_381)">
<path d="M603.73 401.406C603.73 401.406 610.005 401.001 614.812 398.017C619.417 403.936 637.532 424.272 656.356 423.868C634.142 422.299 620.58 418.657 603.73 401.406Z" fill="#F2EEE3"/>
</g>
<path d="M682.618 315.606C689.854 324.207 674.421 348.995 648.26 370.951C622.048 392.907 594.976 403.733 587.791 395.133C580.554 386.533 595.988 361.744 622.149 339.788C648.361 317.832 675.433 307.006 682.618 315.606Z" fill="#F2EEE3"/>
<mask id="mask11_9437_381" style="mask-type:luminance" maskUnits="userSpaceOnUse" x="586" y="312" width="99" height="87">
<path d="M682.618 315.606C689.854 324.207 674.421 348.995 648.26 370.951C622.048 392.907 594.976 403.733 587.791 395.133C580.554 386.533 595.988 361.744 622.149 339.788C648.361 317.832 675.433 307.006 682.618 315.606Z" fill="white"/>
</mask>
<g mask="url(#mask11_9437_381)">
<path d="M682.618 315.606C689.854 324.207 674.421 348.995 648.26 370.951C622.048 392.907 594.976 403.733 587.791 395.133C580.554 386.533 595.988 361.744 622.149 339.788C648.361 317.832 675.433 307.006 682.618 315.606Z" fill="#F2EEE3"/>
</g>
<path d="M679.329 317.933C685.603 325.421 670.878 348.135 646.387 368.624C621.896 389.113 597 399.686 590.675 392.199C584.4 384.711 599.125 361.997 623.616 341.508C648.108 321.019 673.004 310.446 679.329 317.933Z" fill="#E4DECA"/>
<mask id="mask12_9437_381" style="mask-type:luminance" maskUnits="userSpaceOnUse" x="589" y="315" width="92" height="80">
<path d="M679.329 317.933C685.603 325.421 670.878 348.135 646.387 368.624C621.896 389.113 597 399.686 590.675 392.199C584.4 384.711 599.125 361.997 623.616 341.508C648.108 321.019 673.004 310.446 679.329 317.933Z" fill="white"/>
</mask>
<g mask="url(#mask12_9437_381)">
<path d="M679.329 317.933C685.603 325.421 670.878 348.135 646.387 368.624C621.896 389.113 597 399.686 590.675 392.199C584.4 384.711 599.125 361.997 623.616 341.508C648.108 321.019 673.004 310.446 679.329 317.933Z" fill="#E4DECA"/>
<path d="M679.329 317.933C685.603 325.421 670.878 348.135 646.387 368.624C621.896 389.113 597 399.686 590.675 392.199C584.4 384.711 599.125 361.997 623.616 341.508C648.108 321.019 673.004 310.446 679.329 317.933Z" fill="#E4DECA"/>
</g>
<path d="M652.51 339.738C646.286 334.527 637.886 335.539 628.424 337.714C617.898 340.142 608.993 344.139 594.318 342.469C571.952 339.586 554.09 329.063 508.194 334.78C458.908 343.633 432.949 356.786 400.21 369.231C369.798 378.287 338.678 383.143 300.17 375.504C262.219 367.41 246.077 331.745 221.838 342.672C197.6 353.599 206.304 322.588 193.906 324.055C179.738 324.864 171.945 323.397 170.073 314.999C167.087 302.403 158.485 308.878 157.068 314.544C155.955 318.844 159.75 331.997 146.442 324.814C140.876 320.767 146.897 315.455 143.76 311.914C136.574 304.78 125.138 312.217 128.124 320.615C131.109 329.013 154.437 332.554 157.018 340.193C159.598 347.832 157.372 354.661 148.213 356.938C139.054 359.215 127.213 347.579 116.536 346.415C104.088 345.758 101.457 355.673 102.115 361.542C102.772 367.461 108.743 378.388 101.963 375.757C96.7002 373.633 92.7027 373.885 90.6786 378.034C88.6545 382.182 91.0328 388.05 97.4086 388.253C105.05 388.759 117.295 390.074 116.03 398.573C113.753 408.236 102.823 411.676 76.8643 404.34C50.9562 397.005 29.0457 388.809 14.3711 399.13C-0.353973 409.45 7.69171 422.805 18.3687 421.541C29.0457 420.276 32.7902 404.947 52.8791 406.971C72.968 408.994 83.9486 426.6 93.7653 435.756C106.315 448.201 129.085 442.333 136.777 451.793C150.338 468.437 128.073 478.707 146.189 488.167C165.164 496.312 201.345 474.659 212.325 471.573C226.949 466.211 250.53 461.152 292.529 466.312C326.28 469.752 367.521 468.083 405.067 446.026C438.465 421.186 445.296 411.574 466.7 382.03C490.888 352.587 523.779 350.817 549.232 369.029C567.448 381.322 574.836 389.113 592.092 393.565C593.559 394.475 595.532 394.829 597.911 394.779C608.588 394.425 627.614 384.56 646.387 368.827C650.84 365.083 654.99 361.289 658.683 357.545C659.442 350.564 657.57 344.139 652.409 339.889L652.51 339.738Z" fill="#583E33"/>
<path d="M378.704 397.966C376.781 400.243 390.292 396.6 404.764 390.732C417.617 386.179 421.968 382.638 423.132 387.646C424.296 392.654 419.843 400.293 410.583 409.399C401.576 417.595 392.063 425.537 385.181 428.724C376.73 432.62 367.065 434.694 368.837 438.134C370.759 441.928 401.728 428.573 410.33 422.805C425.814 412.89 436.137 405.2 451.317 387.241C467.308 368.321 492.963 350.26 516.189 352.335C539.466 354.409 555.304 364.122 557.935 355.876C560.567 347.63 535.822 334.881 506.372 339.384C476.972 343.886 432.19 370.243 414.176 381.575C396.161 392.907 381.74 394.273 378.653 397.966" fill="#70563E"/>
<path d="M26.9711 396.246C24.2892 396.347 22.0628 396.246 16.4966 399.382C10.9304 402.519 6.78103 407.629 11.234 410.563C15.6869 413.497 19.8869 409.854 25.7061 405.656C31.5253 401.507 32.3855 396.195 26.9711 396.195" fill="#70563E"/>
<path d="M133.083 312.925C130.047 317.073 129.895 324.207 135.411 322.841C140.926 321.475 141.129 318.49 140.572 314.443C140.015 310.396 135.866 309.08 133.083 312.925Z" fill="#70563E"/>
<path d="M109.25 359.215C117.548 365.741 125.847 356.129 118.763 351.879C111.678 347.63 100.85 352.588 109.25 359.215Z" fill="#70563E"/>
<path d="M102.52 419.669C100.394 421.996 108.339 425.335 116.081 424.222C123.823 423.109 134.702 418.556 144.215 422.906C153.678 427.257 173.21 432.67 180.8 428.623C188.391 424.576 183.229 417.038 175.285 413.699C167.34 410.36 165.367 407.477 173.969 401.153C182.571 394.829 183.381 388.506 183.735 380.31C184.09 372.165 181.61 366.347 192.844 369.13C204.077 371.963 212.983 379.298 220.624 377.072C228.315 374.847 220.978 368.523 229.075 367.764C237.171 367.005 241.472 363.363 228.315 360.277C215.21 357.191 212.022 359.771 204.178 350.513C196.335 341.255 174.323 331.39 168.403 339.485C162.483 347.528 171.793 356.027 163.343 366.398C154.943 376.819 140.42 367.815 132.425 378.944C124.43 390.074 145.227 398.725 135.714 409.551C126.201 420.377 120.23 418.809 114.31 419.062C108.389 419.315 105.657 416.127 102.469 419.618" fill="#472D23"/>
<path d="M213.843 410.613C207.215 413.497 218.549 429.331 210.15 438.893C201.699 448.454 185.203 454.98 190.01 462.265C194.868 469.55 213.186 464.238 225.887 459.786C238.588 455.334 266.064 453.766 292.327 457.813C318.893 461.81 341.714 453.564 313.074 451.338C284.433 449.112 254.73 441.675 241.32 426.954C227.911 412.232 220.675 407.73 213.894 410.664" fill="#472D23"/>
<path d="M252.047 353.397C240.915 345.454 224.975 343.127 223.559 346.213C222.142 349.299 231.048 354.712 235.804 358.254C240.51 361.845 249.366 355.066 259.03 361.896C268.695 368.776 275.122 376.87 282.105 379.855C289.139 382.84 295.514 381.17 285.293 376.263C275.122 371.306 262.573 360.884 251.997 353.397" fill="#DFD6C1"/>
<path d="M560.718 343.026C556.923 345.859 568.865 358.961 587.993 363.97C607.12 369.029 626.501 363.262 627.209 354.004C627.867 344.695 615.722 353.801 607.98 354.51C585.564 358.506 565.019 339.839 560.718 343.026Z" fill="#472D23"/>
<path d="M441.197 377.477C440.084 381.322 469.838 354.155 492.862 349.855C515.886 345.555 544.83 352.587 546.196 347.882C547.613 343.228 512.495 334.628 479.756 349.906C446.966 365.184 441.906 374.948 441.197 377.426" fill="#DFD6C1"/>
<path d="M326.584 423.766C311.1 421.793 290.657 408.842 274.363 394.07C258.019 379.349 252.452 383.143 261.46 395.183C270.467 407.173 289.291 411.271 289.847 416.229C290.404 421.186 281.295 415.773 280.536 417.898C279.777 420.023 300.878 434.441 324.611 433.834C348.343 433.176 363.523 428.674 371.974 425.638C380.779 422.198 389.583 416.937 389.381 414.053C389.381 411.777 386.345 416.583 356.996 423.564C345.56 425.942 326.584 423.716 326.584 423.716V423.766Z" fill="#472D23"/>
<path d="M157.777 476.633C157.928 479.921 155.398 482.653 152.16 482.805C148.871 482.956 146.138 480.427 145.986 477.189C145.835 473.951 148.365 471.169 151.603 471.017C154.892 470.865 157.625 473.395 157.777 476.633Z" fill="#70563E"/>
<path d="M100.242 379.299C100.344 381.019 98.9773 382.486 97.2568 382.587C95.5363 382.688 94.0689 381.322 93.9677 379.602C93.8665 377.882 95.2327 376.415 96.9532 376.314C98.6737 376.213 100.141 377.579 100.242 379.299Z" fill="#70563E"/>
<path d="M134.145 356.989C136.979 358.152 143.709 362.604 150.186 361.036C156.663 359.468 159.497 349.35 162.179 350.817C164.911 352.284 161.167 361.39 151.704 364.628C142.242 367.815 137.991 362.756 136.018 361.694C134.044 360.631 130.856 355.623 134.145 356.989Z" fill="#DFD6C1"/>
<path d="M135.815 312.622C131.261 313.785 129.946 321.526 133.943 319.198C137.941 316.871 140.471 311.458 135.815 312.622Z" fill="#DFD6C1"/>
<path d="M13.8147 403.43C9.46296 407.072 11.3352 410.158 16.2436 405.757C21.152 401.356 18.1159 399.838 13.8147 403.43Z" fill="#DFD6C1"/>
<path d="M22.7709 398.421C19.836 399.332 22.2648 401.861 24.6937 400.596C27.1226 399.332 25.3516 397.612 22.7709 398.421Z" fill="#DFD6C1"/>
<path d="M111.223 351.727C105.454 352.588 106.719 356.786 112.589 355.825C118.459 354.915 117.447 350.766 111.223 351.727Z" fill="#DFD6C1"/>
<path d="M637.026 342.166C636.52 347.022 646.792 344.695 645.679 360.277C645.274 365.892 642.288 370.749 638.696 374.846C641.276 372.924 643.857 370.85 646.438 368.675C649.828 365.842 653.016 362.958 656.002 360.074C658.532 342.57 637.734 335.842 637.026 342.166Z" fill="#472D23"/>
<path d="M193.198 74.8522C193.198 43.8409 193.349 25.5782 193.349 25.3758H192.843C192.692 25.3758 191.072 34.9878 186.468 52.6435L177.005 88.4101H165.265L156.106 52.9976C151.35 35.0384 149.427 25.4264 149.427 25.4264H148.921C148.921 25.5782 149.073 43.8915 149.073 74.9028V115.728H135.056V1.39648H155.955L172.299 61.6484H172.805L188.137 1.39648H208.226V115.678H193.198V74.8522Z" fill="#583E33"/>
<path d="M250.63 -0.374023C272.49 -0.374023 282.307 13.6392 282.307 58.7143C282.307 103.789 272.693 117.499 250.63 117.499C228.568 117.499 219.105 103.638 219.105 58.4108C219.105 13.1839 228.72 -0.374023 250.63 -0.374023ZM250.833 102.929C263.078 102.929 266.823 93.3174 266.823 58.8661C266.823 24.4148 263.078 14.1451 250.833 14.1451C238.587 14.1451 234.691 24.1112 234.691 58.2084C234.691 92.3056 238.435 102.929 250.833 102.929Z" fill="#583E33"/>
<path d="M353.352 115.678H336.704L320.36 61.9519L308.266 84.4642V115.627H293.237V1.39648H308.266V36.1514C308.266 44.4986 308.114 59.0177 308.114 59.1695H308.62C309.582 57.0448 315.502 45.6116 319.044 38.4279L337.666 1.39648H354.465L330.936 46.9269L353.302 115.627L353.352 115.678Z" fill="#583E33"/>
<path d="M378.349 89.5234L374.605 115.627H359.728L378.855 1.34619H401.879L420.804 115.627H405.27L401.373 89.5234H378.349ZM394.188 41.5647C392.72 30.941 390.291 14.6512 390.291 14.2971H389.785C389.634 14.6006 387.154 30.4351 385.535 41.0588L380.475 75.5102H399.248L394.188 41.5647Z" fill="#583E33"/>
<path d="M453.898 1.39648C481.021 1.39648 488.206 22.4416 488.206 59.3213C488.206 96.2009 481.678 115.627 455.366 115.627H429.71V1.39648H453.898ZM453.088 101.108C469.585 101.108 472.823 88.2078 472.823 60.2825C472.823 32.3572 468.573 15.865 452.582 15.865H444.739V101.057H453.088V101.108Z" fill="#583E33"/>
<path d="M528.029 -0.374023C549.889 -0.374023 559.706 13.6392 559.706 58.7143C559.706 103.789 550.092 117.499 528.029 117.499C505.967 117.499 496.504 103.638 496.504 58.4108C496.504 13.1839 506.119 -0.374023 528.029 -0.374023ZM528.181 102.929C540.427 102.929 544.171 93.3174 544.171 58.8661C544.171 24.4148 540.427 14.1451 528.181 14.1451C515.935 14.1451 512.039 24.1112 512.039 58.2084C512.039 92.3056 515.784 102.929 528.181 102.929Z" fill="#583E33"/>
<path d="M593.812 69.2874H585.665V115.627H570.636V1.39648H594.824C614.559 1.39648 624.072 15.9156 624.072 36.1514C624.072 56.3871 617.696 62.2555 608.082 65.8473L625.084 115.627H608.942L593.913 69.2874H593.812ZM594.824 56.3871C602.667 56.3871 609.195 51.1764 609.195 36.1514C609.195 21.1263 603.173 15.9156 592.699 15.9156H585.665V56.3871H594.824Z" fill="#583E33"/>
<path d="M496.353 201.426H263.686V205.473H496.353V201.426Z" fill="#70563E"/>
<path d="M496.707 133.131H263.382V137.178H496.707V133.131Z" fill="#70563E"/>
<path d="M278.209 151.343V193.534H271.934V151.343H263.382V145.222H286.862V151.343H278.209Z" fill="#583E33"/>
<path d="M290.859 145.222H297.235V193.534H290.859V145.222Z" fill="#583E33"/>
<path d="M323.699 145.222C331.897 145.222 336.451 150.331 336.451 160.55C336.451 170.769 331.745 175.474 323.699 175.474H320.512V193.585H314.136V145.272H323.649L323.699 145.222ZM323.092 169.606C327.849 169.606 330.126 166.925 330.227 160.55C330.227 154.328 327.798 151.394 323.092 151.394H320.562V169.606H323.092Z" fill="#583E33"/>
<path d="M353.251 144.463C362.511 144.463 366.661 150.382 366.661 169.454C366.661 188.526 362.562 194.293 353.251 194.293C343.94 194.293 339.943 188.425 339.943 169.302C339.943 150.179 344.042 144.463 353.251 144.463ZM353.352 188.172C358.514 188.172 360.133 184.074 360.133 169.555C360.133 155.036 358.564 150.635 353.352 150.635C348.14 150.635 346.521 154.834 346.521 169.252C346.521 183.67 348.09 188.172 353.352 188.172Z" fill="#583E33"/>
<path d="M381.082 173.957H377.641V193.585H371.265V145.272H381.487C389.836 145.272 393.834 151.394 393.834 159.994C393.834 168.594 391.152 171.022 387.053 172.54L394.238 193.585H387.407L381.031 173.957H381.082ZM381.537 168.493C384.826 168.493 387.61 166.267 387.61 159.943C387.61 153.62 385.079 151.394 380.626 151.394H377.641V168.493H381.487H381.537Z" fill="#583E33"/>
<path d="M410.532 151.343V193.534H404.258V151.343H395.706V145.222H419.185V151.343H410.532Z" fill="#583E33"/>
<path d="M425.915 182.506L424.346 193.534H418.072L426.168 145.222H435.884L443.879 193.534H437.3L435.631 182.506H425.915ZM432.594 162.22C431.987 157.717 430.925 150.837 430.925 150.685H430.722C430.672 150.837 429.609 157.515 428.951 162.017L426.826 176.587H434.77L432.645 162.22H432.594Z" fill="#583E33"/>
<path d="M458.705 145.222H465.081V193.534H458.705V145.222Z" fill="#583E33"/>
<path d="M477.074 159.083H476.871C476.871 159.134 476.922 165.002 476.922 170.618V193.534H471.001V145.222H477.833L490.078 180.685H490.281C490.281 180.634 490.23 175.171 490.23 168.897V145.222H496.151V193.534H489.168L477.074 159.083Z" fill="#583E33"/>
</g>
<defs>
<clipPath id="clip0_9437_381">
<rect width="761" height="491" fill="white"/>
</clipPath>
</defs>
</svg>
