<svg width="18" height="25" viewBox="0 0 18 25" fill="none" xmlns="http://www.w3.org/2000/svg">
<path d="M2.25 8.84063C2.25 10.1578 2.67656 11.7 3.45 13.3641C4.21406 15.0094 5.25 16.65 6.32344 18.1219C7.275 19.4344 8.23594 20.5828 9.00469 21.4547C9.77344 20.5828 10.7297 19.4344 11.6859 18.1219C12.7594 16.65 13.7953 15.0094 14.5594 13.3641C15.3281 11.7 15.7594 10.1578 15.7594 8.84063C15.7594 5.24063 12.7734 2.25 9.00938 2.25C5.24531 2.25 2.25 5.23594 2.25 8.84063ZM18 8.84063C18 14.0531 13.1109 20.2219 10.5422 23.1094C10.0641 23.6484 9.66562 24.0703 9.39375 24.3516C9.14531 24.6094 9 24.75 9 24.75C9 24.75 8.85938 24.6094 8.60625 24.3516C8.33438 24.0703 7.93594 23.6437 7.45781 23.1094C4.88906 20.2219 0 14.0531 0 8.84063C0 3.95625 4.03125 0 9 0C13.9688 0 18 3.95625 18 8.84063ZM10.5 9C10.5 8.17031 9.82969 7.5 9 7.5C8.17031 7.5 7.5 8.17031 7.5 9C7.5 9.82969 8.17031 10.5 9 10.5C9.82969 10.5 10.5 9.82969 10.5 9ZM5.25 9C5.25 6.92812 6.92812 5.25 9 5.25C11.0719 5.25 12.75 6.92812 12.75 9C12.75 11.0719 11.0719 12.75 9 12.75C6.92812 12.75 5.25 11.0719 5.25 9Z" fill="#614637"/>
</svg>
