<?xml version="1.0" encoding="UTF-8"?>
<svg id="Livello_1" xmlns="http://www.w3.org/2000/svg" version="1.1" viewBox="0 0 500 500">
  <!-- Generator: Adobe Illustrator 29.8.5, SVG Export Plug-In . SVG Version: 2.1.1 Build 2)  -->
  <defs>
    <style>
      .st0 {
        fill: #4f3328;
      }

      .st1 {
        fill: #c3b598;
      }

      .st2 {
        fill: #dfd6c1;
      }
    </style>
  </defs>
  <g>
    <path class="st2" d="M368.5,284.6h0v-2.6c0-37.8-63.4-44.8-141.5-44.8h0c-78.2,0-141.5,7.2-141.5,44.8,0,98.8,63.2,178.8,141.2,179.2h.3c.2,0,0,0,0,0h.2c43.8,0,82.8-25.4,108.7-64.9,9.4,6,20.6,9.5,32.5,9.5,33.4,0,60.6-27.2,60.6-60.6s-27.2-60.6-60.6-60.6h.2ZM368.5,373.3c-6.5,0-12.4-2.2-17-5.8,6.6-15.5,11.6-32.4,14.3-50.1h2.7c15.5,0,28.1,12.6,28.1,28.1s-12.6,28.1-28.1,28.1v-.3Z"/>
    <path class="st0" d="M339.1,275c-26.7,15.8-82.3,19.1-113.6,19.4v-10.9,10.9c-4.9,0-9.7,0-14.5-.3-24.2-1-48.4-3.1-71.9-8.9-9.4-2.4-18.9-5.3-27.2-10.4,13.8,4.3,28.1,5.1,42.2,6.3,3.6.2,10.7.7,14.3.9,18.9.9,38.1,1.4,57.1,1.5v10.9h0v-10.9c9.5,0,19.1-.2,28.6-.5,14.3-.3,28.6-.9,42.7-1.9,14.3-1.2,28.4-2,42.2-6.3h0v.2Z"/>
  </g>
  <path class="st1" d="M246.8,38.8c11.1,14.5,9,33.2.5,48.7-11.2,21.3-25,33.7-16.9,58.9,6.1,18.9,18.4,40,6.1,59.8-2.2,3.6-4.9,6.8-7.8,9.5,2.9-7.2,4.9-14.6,4.3-22.1-.5-7.2-3.4-13.5-7-20.3-7.8-14.5-17-30.7-14.8-48.7,4.4-34.7,43.3-47.5,35.4-85.8h.2Z"/>
  <path class="st1" d="M200.1,78.3c-10.7,17.7-27.9,34.9-22.7,56.7,2.2,9.7,8.3,20.4,11.1,33.2,2.9,12.4-.3,26.7-9,36.1,4.9-19.4-.5-31-10.2-47.5-6.6-11.6-11.9-24.9-9.2-38.7,4.1-20.1,21.3-33.9,39.9-39.9h.2Z"/>
  <path class="st1" d="M278.1,102c-.3,9.4-.5,17.7-.3,26.7.2,10,.7,19.8,3.9,29.3l2,6.1c6.1,14.8,4.9,29.3-4.8,42.4,0-8.7,0-17.5-3.1-25.4-4.6-10-11.9-19.9-13.6-31.7-3.1-16.9,1.7-36.8,15.7-47.5h.2Z"/>
</svg>